# xmcd
#
# Track frame offsets: 
#        150
#        10467
#        20685
#        31677
#        42642
#        54385
#        64382
#        74732
#        84237
#        94280
#        106472
#        115550
#        126050
#        137395
#        147482
#        157230
#        167355
#        177525
#        187372
#        196887
#        207552
#        218267
#        228750
#        238857
#        249587
#        260477
#        270605
#        280920
#        290205
#        300227
#        310895
#        320767
#
# Disc length: 4421 seconds
#
# Revision: 3
# Processed by: cddbd v1.5.2PL0 Copyright (c) Steve Scherf et al.
# Submitted via: ExactAudioCopyFreeDBPlugin 1.0
#
DISCID=e6114320
DTITLE=Chet Atkins - Galloping Guitar - The Early Years [CD 3)
DYEAR=1995
DGENRE=Country
TTITLE0=St Louis Blues '52
TTITLE1=Nobody's Sweetheart '93
TTITLE2=Lover Come Back To Me '52
TTITLE3=Stephen Foster Medley '52
TTITLE4=Hangover Blues '52
TTITLE5=Imagination '52
TTITLE6=Black Mountain Rag '52
TTITLE7=Guitar Polka (& Rosalie Allen) '55
TTITLE8=Dream Train (& Rosalie Allen) '55
TTITLE9=Meet Mr Callaghan '52
TTITLE10=Chinatown My Chinatown '52
TTITLE11=High Rockin' Swing '55
TTITLE12=Pig Leaf Rag '55
TTITLE13=Oh By Jingo! '55
TTITLE14=Hello Ma Baby '55
TTITLE15=The Bells Of St Mary's '55
TTITLE16=Country Gentleman '55
TTITLE17=Memphis Blues '55
TTITLE18=Alice Blue Gown '55
TTITLE19=12th Street Rag '55
TTITLE20=Peeping Tom '93
TTITLE21=Three O'Clock In The Morning '55
TTITLE22=Georgia Camp Meeting '54
TTITLE23=City Slicker '53
TTITLE24=Dill Pickle Rag '60
TTITLE25=Rubber Doll Rag '60
TTITLE26=Beautiful Ohio
TTITLE27=Kentucky Derby
TTITLE28=Wildwood Flower
TTITLE29=Guitars On Parade
TTITLE30=Simple Simon
TTITLE31=Rubber Doll Rag (alt)
EXTD=
EXTT0=
EXTT1=
EXTT2=
EXTT3=
EXTT4=
EXTT5=
EXTT6=
EXTT7=
EXTT8=
EXTT9=
EXTT10=
EXTT11=
EXTT12=
EXTT13=
EXTT14=
EXTT15=
EXTT16=
EXTT17=
EXTT18=
EXTT19=
EXTT20=
EXTT21=
EXTT22=
EXTT23=
EXTT24=
EXTT25=
EXTT26=
EXTT27=
EXTT28=
EXTT29=
EXTT30=
EXTT31=
PLAYORDER=
